<?xml version="1.0" encoding="utf-8"?>
<!-- Generator: Adobe Illustrator 22.1.0, SVG Export Plug-In . SVG Version: 6.00 Build 0)  -->
<svg version="1.1" id="Layer_1" xmlns="http://www.w3.org/2000/svg" xmlns:xlink="http://www.w3.org/1999/xlink" x="0px" y="0px"
	 viewBox="0 0 93.6 122.9" style="enable-background:new 0 0 93.6 122.9;" xml:space="preserve">
<g>
	<path d="M46.8,16.6c8.3,0,15.9,3.4,21.4,8.9c5.5,5.5,8.8,13,8.8,21.4c0,8-3.1,15.2-8.1,20.6c-0.5-2.8-1.3-5.4-2.3-7.6
		c2.5-3.7,3.9-8.2,3.9-13c0-6.5-2.7-12.5-6.9-16.7s-10.2-6.9-16.7-6.9s-12.5,2.6-16.7,6.9s-6.9,10.2-6.9,16.7c0,5,1.5,9.6,4.2,13.4
		c-1,2.2-1.8,4.7-2.4,7.5c-5.2-5.4-8.4-12.8-8.4-20.9c0-8.3,3.4-15.9,8.9-21.4C30.9,19.9,38.4,16.6,46.8,16.6L46.8,16.6z M30.8,66.9
		c2.5-9.5,32.1-7.8,32.1-0.3C62.9,143.2,30.8,139.9,30.8,66.9L30.8,66.9z M46.9,32.8c7.1,0,12.8,5.7,12.8,12.8S54,58.4,46.9,58.4
		s-12.8-5.7-12.8-12.8S39.9,32.8,46.9,32.8L46.9,32.8z M46.8,0c12.9,0,24.6,5.2,33.1,13.7c8.5,8.5,13.7,20.2,13.7,33.1
		s-5.2,24.6-13.7,33.1c-3.3,3.3-7.1,6.1-11.3,8.3c0.3-2.3,0.6-4.7,0.8-7.2c0-0.3,0.1-0.6,0.1-1c2.1-1.4,4-3,5.8-4.8
		C82.5,67.9,87,57.9,87,46.8s-4.5-21.2-11.8-28.5C68,11.1,57.9,6.6,46.8,6.6s-21.2,4.5-28.5,11.8C11.1,25.6,6.6,35.7,6.6,46.8
		S11.1,68,18.3,75.2c1.8,1.8,3.8,3.5,6,4.9c0,0.5,0.1,0.9,0.1,1.4c0.2,2.3,0.5,4.6,0.8,6.8c-4.3-2.2-8.1-5.1-11.5-8.4
		C5.2,71.4,0,59.7,0,46.8s5.2-24.6,13.7-33.1C22.2,5.2,33.9,0,46.8,0L46.8,0z"/>
</g>
</svg>
